{
  "asset": {
    "generator": "Khronos glTF Blender I/O v4.0.44",
    "version": "2.0"
  },
  "scene": 0,
  "scenes": [
    {
      "name": "Scene",
      "nodes": [0]
    }
  ],
  "nodes": [
    {
      "mesh": 0,
      "name": "Mappemonde"
    }
  ],
  "meshes": [
    {
      "name": "Mappemonde",
      "primitives": [
        {
          "attributes": {
            "POSITION": 0,
            "NORMAL": 1,
            "TEXCOORD_0": 2,
            "TEXCOORD_1": 3
          },
          "indices": 4
        }
      ]
    }
  ],
  "accessors": [
    {
      "bufferView": 0,
      "componentType": 5126,
      "count": 38446,
      "max": [-8.565319061279297, 11.615968704223633, -11.065023422241211],
      "min": [-11.234681129455566, 8.19999885559082, -13.734979629516602],
      "type": "VEC3"
    },
    {
      "bufferView": 1,
      "componentType": 5126,
      "count": 38446,
      "type": "VEC3"
    },
    {
      "bufferView": 2,
      "componentType": 5126,
      "count": 38446,
      "type": "VEC2"
    },
    {
      "bufferView": 3,
      "componentType": 5126,
      "count": 38446,
      "type": "VEC2"
    },
    {
      "bufferView": 4,
      "componentType": 5123,
      "count": 59142,
      "type": "SCALAR"
    }
  ],
  "bufferViews": [
    {
      "buffer": 0,
      "byteLength": 461352,
      "byteOffset": 0,
      "target": 34962
    },
    {
      "buffer": 0,
      "byteLength": 461352,
      "byteOffset": 461352,
      "target": 34962
    },
    {
      "buffer": 0,
      "byteLength": 307568,
      "byteOffset": 922704,
      "target": 34962
    },
    {
      "buffer": 0,
      "byteLength": 307568,
      "byteOffset": 1230272,
      "target": 34962
    },
    {
      "buffer": 0,
      "byteLength": 118284,
      "byteOffset": 1537840,
      "target": 34963
    }
  ],
  "buffers": [
    {
      "byteLength": 1656124,
      "uri": "Mappemonde.bin"
    }
  ]
}
