{
  "asset": {
    "generator": "Khronos glTF Blender I/O v4.0.44",
    "version": "2.0"
  },
  "scene": 0,
  "scenes": [
    {
      "name": "Scene",
      "nodes": [0]
    }
  ],
  "nodes": [
    {
      "mesh": 0,
      "name": "Cerveau"
    }
  ],
  "meshes": [
    {
      "name": "Cerveau",
      "primitives": [
        {
          "attributes": {
            "POSITION": 0,
            "NORMAL": 1,
            "TEXCOORD_0": 2,
            "TEXCOORD_1": 3
          },
          "indices": 4
        }
      ]
    }
  ],
  "accessors": [
    {
      "bufferView": 0,
      "componentType": 5126,
      "count": 1866,
      "max": [-14.38399887084961, 18.762001037597656, -14.262855529785156],
      "min": [-20.93600082397461, 10.277997970581055, -14.518805503845215],
      "type": "VEC3"
    },
    {
      "bufferView": 1,
      "componentType": 5126,
      "count": 1866,
      "type": "VEC3"
    },
    {
      "bufferView": 2,
      "componentType": 5126,
      "count": 1866,
      "type": "VEC2"
    },
    {
      "bufferView": 3,
      "componentType": 5126,
      "count": 1866,
      "type": "VEC2"
    },
    {
      "bufferView": 4,
      "componentType": 5123,
      "count": 2826,
      "type": "SCALAR"
    }
  ],
  "bufferViews": [
    {
      "buffer": 0,
      "byteLength": 22392,
      "byteOffset": 0,
      "target": 34962
    },
    {
      "buffer": 0,
      "byteLength": 22392,
      "byteOffset": 22392,
      "target": 34962
    },
    {
      "buffer": 0,
      "byteLength": 14928,
      "byteOffset": 44784,
      "target": 34962
    },
    {
      "buffer": 0,
      "byteLength": 14928,
      "byteOffset": 59712,
      "target": 34962
    },
    {
      "buffer": 0,
      "byteLength": 5652,
      "byteOffset": 74640,
      "target": 34963
    }
  ],
  "buffers": [
    {
      "byteLength": 80292,
      "uri": "Cerveau.bin"
    }
  ]
}
