{
	"asset":{
		"generator":"Khronos glTF Blender I/O v4.0.44",
		"version":"2.0"
	},
	"scene":0,
	"scenes":[
		{
			"name":"Scene",
			"nodes":[
				0
			]
		}
	],
	"nodes":[
		{
			"mesh":0,
			"name":"NicotianaRusticaL"
		}
	],
	"meshes":[
		{
			"name":"NicotianaRusticaL",
			"primitives":[
				{
					"attributes":{
						"POSITION":0,
						"NORMAL":1,
						"TEXCOORD_0":2,
						"TEXCOORD_1":3
					},
					"indices":4
				}
			]
		}
	],
	"accessors":[
		{
			"bufferView":0,
			"componentType":5126,
			"count":984,
			"max":[
				12.227200508117676,
				20.63199806213379,
				-14.313817024230957
			],
			"min":[
				6.57280158996582,
				12.567998886108398,
				-14.54001235961914
			],
			"type":"VEC3"
		},
		{
			"bufferView":1,
			"componentType":5126,
			"count":984,
			"type":"VEC3"
		},
		{
			"bufferView":2,
			"componentType":5126,
			"count":984,
			"type":"VEC2"
		},
		{
			"bufferView":3,
			"componentType":5126,
			"count":984,
			"type":"VEC2"
		},
		{
			"bufferView":4,
			"componentType":5123,
			"count":1488,
			"type":"SCALAR"
		}
	],
	"bufferViews":[
		{
			"buffer":0,
			"byteLength":11808,
			"byteOffset":0,
			"target":34962
		},
		{
			"buffer":0,
			"byteLength":11808,
			"byteOffset":11808,
			"target":34962
		},
		{
			"buffer":0,
			"byteLength":7872,
			"byteOffset":23616,
			"target":34962
		},
		{
			"buffer":0,
			"byteLength":7872,
			"byteOffset":31488,
			"target":34962
		},
		{
			"buffer":0,
			"byteLength":2976,
			"byteOffset":39360,
			"target":34963
		}
	],
	"buffers":[
		{
			"byteLength":42336,
			"uri":"NicotianaRusticaL.bin"
		}
	]
}
