{
  "asset": {
    "generator": "Khronos glTF Blender I/O v4.0.44",
    "version": "2.0"
  },
  "scene": 0,
  "scenes": [
    {
      "name": "Scene",
      "nodes": [0]
    }
  ],
  "nodes": [
    {
      "mesh": 0,
      "name": "Trinite"
    }
  ],
  "meshes": [
    {
      "name": "Trinite",
      "primitives": [
        {
          "attributes": {
            "POSITION": 0,
            "NORMAL": 1,
            "TEXCOORD_0": 2,
            "TEXCOORD_1": 3
          },
          "indices": 4
        }
      ]
    }
  ],
  "accessors": [
    {
      "bufferView": 0,
      "componentType": 5126,
      "count": 452,
      "max": [-14.393999099731445, 22.659997940063477, -14.124220848083496],
      "min": [-16.96599769592285, 19.139997482299805, -14.500000953674316],
      "type": "VEC3"
    },
    {
      "bufferView": 1,
      "componentType": 5126,
      "count": 452,
      "type": "VEC3"
    },
    {
      "bufferView": 2,
      "componentType": 5126,
      "count": 452,
      "type": "VEC2"
    },
    {
      "bufferView": 3,
      "componentType": 5126,
      "count": 452,
      "type": "VEC2"
    },
    {
      "bufferView": 4,
      "componentType": 5123,
      "count": 690,
      "type": "SCALAR"
    }
  ],
  "bufferViews": [
    {
      "buffer": 0,
      "byteLength": 5424,
      "byteOffset": 0,
      "target": 34962
    },
    {
      "buffer": 0,
      "byteLength": 5424,
      "byteOffset": 5424,
      "target": 34962
    },
    {
      "buffer": 0,
      "byteLength": 3616,
      "byteOffset": 10848,
      "target": 34962
    },
    {
      "buffer": 0,
      "byteLength": 3616,
      "byteOffset": 14464,
      "target": 34962
    },
    {
      "buffer": 0,
      "byteLength": 1380,
      "byteOffset": 18080,
      "target": 34963
    }
  ],
  "buffers": [
    {
      "byteLength": 19460,
      "uri": "Trinite.bin"
    }
  ]
}
