{
  "asset": {
    "generator": "Khronos glTF Blender I/O v4.0.44",
    "version": "2.0"
  },
  "scene": 0,
  "scenes": [
    {
      "name": "Scene",
      "nodes": [0]
    }
  ],
  "nodes": [
    {
      "mesh": 0,
      "name": "ChaiseDeBureau"
    }
  ],
  "meshes": [
    {
      "name": "ChaiseDeBureau",
      "primitives": [
        {
          "attributes": {
            "POSITION": 0,
            "NORMAL": 1,
            "TEXCOORD_0": 2,
            "TEXCOORD_1": 3
          },
          "indices": 4
        }
      ]
    }
  ],
  "accessors": [
    {
      "bufferView": 0,
      "componentType": 5126,
      "count": 27931,
      "max": [2.6460888385772705, 8.029406547546387, 2.855393886566162],
      "min": [-2.5649826526641846, 0.008638381958007812, -2.795083999633789],
      "type": "VEC3"
    },
    {
      "bufferView": 1,
      "componentType": 5126,
      "count": 27931,
      "type": "VEC3"
    },
    {
      "bufferView": 2,
      "componentType": 5126,
      "count": 27931,
      "type": "VEC2"
    },
    {
      "bufferView": 3,
      "componentType": 5126,
      "count": 27931,
      "type": "VEC2"
    },
    {
      "bufferView": 4,
      "componentType": 5123,
      "count": 95628,
      "type": "SCALAR"
    }
  ],
  "bufferViews": [
    {
      "buffer": 0,
      "byteLength": 335172,
      "byteOffset": 0,
      "target": 34962
    },
    {
      "buffer": 0,
      "byteLength": 335172,
      "byteOffset": 335172,
      "target": 34962
    },
    {
      "buffer": 0,
      "byteLength": 223448,
      "byteOffset": 670344,
      "target": 34962
    },
    {
      "buffer": 0,
      "byteLength": 223448,
      "byteOffset": 893792,
      "target": 34962
    },
    {
      "buffer": 0,
      "byteLength": 191256,
      "byteOffset": 1117240,
      "target": 34963
    }
  ],
  "buffers": [
    {
      "byteLength": 1308496,
      "uri": "ChaiseDeBureau.bin"
    }
  ]
}
