{
	"asset":{
		"generator":"Khronos glTF Blender I/O v4.0.44",
		"version":"2.0"
	},
	"scene":0,
	"scenes":[
		{
			"name":"Scene",
			"nodes":[
				0
			]
		}
	],
	"nodes":[
		{
			"mesh":0,
			"name":"BatiPorteChambre",
			"translation":[
				-0.20000000298023224,
				0,
				0
			]
		}
	],
	"meshes":[
		{
			"name":"BatiPorteChambre",
			"primitives":[
				{
					"attributes":{
						"POSITION":0,
						"NORMAL":1,
						"TEXCOORD_0":2
					},
					"indices":3
				}
			]
		}
	],
	"accessors":[
		{
			"bufferView":0,
			"componentType":5126,
			"count":2068,
			"max":[
				-25.283540725708008,
				24.7380428314209,
				-3.1799895763397217
			],
			"min":[
				-26.430030822753906,
				0,
				-13.820003509521484
			],
			"type":"VEC3"
		},
		{
			"bufferView":1,
			"componentType":5126,
			"count":2068,
			"type":"VEC3"
		},
		{
			"bufferView":2,
			"componentType":5126,
			"count":2068,
			"type":"VEC2"
		},
		{
			"bufferView":3,
			"componentType":5123,
			"count":3942,
			"type":"SCALAR"
		}
	],
	"bufferViews":[
		{
			"buffer":0,
			"byteLength":24816,
			"byteOffset":0,
			"target":34962
		},
		{
			"buffer":0,
			"byteLength":24816,
			"byteOffset":24816,
			"target":34962
		},
		{
			"buffer":0,
			"byteLength":16544,
			"byteOffset":49632,
			"target":34962
		},
		{
			"buffer":0,
			"byteLength":7884,
			"byteOffset":66176,
			"target":34963
		}
	],
	"buffers":[
		{
			"byteLength":74060,
			"uri":"BatiPorteChambre.bin"
		}
	]
}
