{
	"asset":{
		"generator":"Khronos glTF Blender I/O v4.0.44",
		"version":"2.0"
	},
	"scene":0,
	"scenes":[
		{
			"name":"Scene",
			"nodes":[
				0
			]
		}
	],
	"nodes":[
		{
			"mesh":0,
			"name":"HautParleur"
		}
	],
	"meshes":[
		{
			"name":"HautParleur",
			"primitives":[
				{
					"attributes":{
						"POSITION":0,
						"NORMAL":1,
						"TEXCOORD_0":2,
						"TEXCOORD_1":3
					},
					"indices":4
				}
			]
		}
	],
	"accessors":[
		{
			"bufferView":0,
			"componentType":5126,
			"count":7488,
			"max":[
				0.7780501246452332,
				0.7780537605285645,
				1.0962251424789429
			],
			"min":[
				-0.7780500650405884,
				-0.7780466079711914,
				0.7463834881782532
			],
			"type":"VEC3"
		},
		{
			"bufferView":1,
			"componentType":5126,
			"count":7488,
			"type":"VEC3"
		},
		{
			"bufferView":2,
			"componentType":5126,
			"count":7488,
			"type":"VEC2"
		},
		{
			"bufferView":3,
			"componentType":5126,
			"count":7488,
			"type":"VEC2"
		},
		{
			"bufferView":4,
			"componentType":5123,
			"count":11706,
			"type":"SCALAR"
		}
	],
	"bufferViews":[
		{
			"buffer":0,
			"byteLength":89856,
			"byteOffset":0,
			"target":34962
		},
		{
			"buffer":0,
			"byteLength":89856,
			"byteOffset":89856,
			"target":34962
		},
		{
			"buffer":0,
			"byteLength":59904,
			"byteOffset":179712,
			"target":34962
		},
		{
			"buffer":0,
			"byteLength":59904,
			"byteOffset":239616,
			"target":34962
		},
		{
			"buffer":0,
			"byteLength":23412,
			"byteOffset":299520,
			"target":34963
		}
	],
	"buffers":[
		{
			"byteLength":322932,
			"uri":"HautParleur.bin"
		}
	]
}
