{
	"asset":{
		"generator":"Khronos glTF Blender I/O v4.0.44",
		"version":"2.0"
	},
	"scene":0,
	"scenes":[
		{
			"name":"Scene",
			"nodes":[
				0
			]
		}
	],
	"nodes":[
		{
			"mesh":0,
			"name":"Parois"
		}
	],
	"meshes":[
		{
			"name":"Parois",
			"primitives":[
				{
					"attributes":{
						"POSITION":0,
						"NORMAL":1,
						"TEXCOORD_0":2,
						"TEXCOORD_1":3
					},
					"indices":4
				}
			]
		}
	],
	"accessors":[
		{
			"bufferView":0,
			"componentType":5126,
			"count":5059,
			"max":[
				1,
				8.199999809265137,
				1
			],
			"min":[
				-1,
				5.9604641222676946e-08,
				-1
			],
			"type":"VEC3"
		},
		{
			"bufferView":1,
			"componentType":5126,
			"count":5059,
			"type":"VEC3"
		},
		{
			"bufferView":2,
			"componentType":5126,
			"count":5059,
			"type":"VEC2"
		},
		{
			"bufferView":3,
			"componentType":5126,
			"count":5059,
			"type":"VEC2"
		},
		{
			"bufferView":4,
			"componentType":5123,
			"count":8064,
			"type":"SCALAR"
		}
	],
	"bufferViews":[
		{
			"buffer":0,
			"byteLength":60708,
			"byteOffset":0,
			"target":34962
		},
		{
			"buffer":0,
			"byteLength":60708,
			"byteOffset":60708,
			"target":34962
		},
		{
			"buffer":0,
			"byteLength":40472,
			"byteOffset":121416,
			"target":34962
		},
		{
			"buffer":0,
			"byteLength":40472,
			"byteOffset":161888,
			"target":34962
		},
		{
			"buffer":0,
			"byteLength":16128,
			"byteOffset":202360,
			"target":34963
		}
	],
	"buffers":[
		{
			"byteLength":218488,
			"uri":"Parois.bin"
		}
	]
}
