{
	"asset":{
		"generator":"Khronos glTF Blender I/O v4.0.44",
		"version":"2.0"
	},
	"scene":0,
	"scenes":[
		{
			"name":"Scene",
			"nodes":[
				0
			]
		}
	],
	"nodes":[
		{
			"mesh":0,
			"name":"Rays"
		}
	],
	"materials":[
		{
			"doubleSided":true,
			"name":"Material.002",
			"pbrMetallicRoughness":{
				"metallicFactor":0,
				"roughnessFactor":0.5
			}
		}
	],
	"meshes":[
		{
			"name":"Rays",
			"primitives":[
				{
					"attributes":{
						"COLOR_0":0,
						"POSITION":1,
						"NORMAL":2,
						"TEXCOORD_0":3
					},
					"indices":4,
					"material":0
				}
			]
		}
	],
	"accessors":[
		{
			"bufferView":0,
			"componentType":5126,
			"count":173,
			"type":"VEC4"
		},
		{
			"bufferView":1,
			"componentType":5126,
			"count":173,
			"max":[
				0.8778235912322998,
				1.221980333328247,
				1.8558416366577148
			],
			"min":[
				-0.488986074924469,
				0.2615160644054413,
				0.6361929178237915
			],
			"type":"VEC3"
		},
		{
			"bufferView":2,
			"componentType":5126,
			"count":173,
			"type":"VEC3"
		},
		{
			"bufferView":3,
			"componentType":5126,
			"count":173,
			"type":"VEC2"
		},
		{
			"bufferView":4,
			"componentType":5123,
			"count":276,
			"type":"SCALAR"
		}
	],
	"bufferViews":[
		{
			"buffer":0,
			"byteLength":2768,
			"byteOffset":0,
			"target":34962
		},
		{
			"buffer":0,
			"byteLength":2076,
			"byteOffset":2768,
			"target":34962
		},
		{
			"buffer":0,
			"byteLength":2076,
			"byteOffset":4844,
			"target":34962
		},
		{
			"buffer":0,
			"byteLength":1384,
			"byteOffset":6920,
			"target":34962
		},
		{
			"buffer":0,
			"byteLength":552,
			"byteOffset":8304,
			"target":34963
		}
	],
	"buffers":[
		{
			"byteLength":8856,
			"uri":"Rays.bin"
		}
	]
}
