{
  "asset": {
    "generator": "Khronos glTF Blender I/O v4.0.43",
    "version": "2.0"
  },
  "extensionsUsed": ["KHR_materials_specular", "KHR_materials_ior"],
  "scene": 0,
  "scenes": [
    {
      "name": "Scene",
      "nodes": [0]
    }
  ],
  "nodes": [
    {
      "mesh": 0,
      "name": "trestle_left",
      "translation": [10, 0, -11.800000190734863]
    }
  ],
  "materials": [
    {
      "doubleSided": true,
      "extensions": {
        "KHR_materials_specular": {
          "specularFactor": 0
        },
        "KHR_materials_ior": {
          "ior": 1.4500000476837158
        }
      },
      "name": "trestle_left",
      "pbrMetallicRoughness": {
        "baseColorTexture": {
          "index": 0
        },
        "metallicFactor": 0,
        "roughnessFactor": 0.5
      }
    }
  ],
  "meshes": [
    {
      "name": "trestle_left",
      "primitives": [
        {
          "attributes": {
            "POSITION": 0,
            "NORMAL": 1,
            "TEXCOORD_0": 2
          },
          "indices": 3,
          "material": 0
        }
      ]
    }
  ],
  "textures": [
    {
      "sampler": 0,
      "source": 0
    }
  ],
  "images": [
    {
      "mimeType": "image/jpeg",
      "name": "wood_light",
      "uri": "wood_light.jpg"
    }
  ],
  "accessors": [
    {
      "bufferView": 0,
      "componentType": 5126,
      "count": 556,
      "max": [1.918050765991211, 5.199999809265137, 3.1933441162109375],
      "min": [-1.918050765991211, -2.60540168676689e-14, -3.1933441162109375],
      "type": "VEC3"
    },
    {
      "bufferView": 1,
      "componentType": 5126,
      "count": 556,
      "type": "VEC3"
    },
    {
      "bufferView": 2,
      "componentType": 5126,
      "count": 556,
      "type": "VEC2"
    },
    {
      "bufferView": 3,
      "componentType": 5123,
      "count": 1104,
      "type": "SCALAR"
    }
  ],
  "bufferViews": [
    {
      "buffer": 0,
      "byteLength": 6672,
      "byteOffset": 0,
      "target": 34962
    },
    {
      "buffer": 0,
      "byteLength": 6672,
      "byteOffset": 6672,
      "target": 34962
    },
    {
      "buffer": 0,
      "byteLength": 4448,
      "byteOffset": 13344,
      "target": 34962
    },
    {
      "buffer": 0,
      "byteLength": 2208,
      "byteOffset": 17792,
      "target": 34963
    }
  ],
  "samplers": [
    {
      "magFilter": 9729,
      "minFilter": 9987
    }
  ],
  "buffers": [
    {
      "byteLength": 20000,
      "uri": "trestle_left.bin"
    }
  ]
}
