{
  "asset": {
    "generator": "Khronos glTF Blender I/O v4.0.44",
    "version": "2.0"
  },
  "scene": 0,
  "scenes": [
    {
      "name": "Scene",
      "nodes": [0]
    }
  ],
  "nodes": [
    {
      "mesh": 0,
      "name": "MacBookPro"
    }
  ],
  "meshes": [
    {
      "name": "MacBookPro",
      "primitives": [
        {
          "attributes": {
            "POSITION": 0,
            "NORMAL": 1,
            "TEXCOORD_0": 2
          },
          "indices": 3
        }
      ]
    }
  ],
  "accessors": [
    {
      "bufferView": 0,
      "componentType": 5126,
      "count": 13266,
      "max": [1.778499960899353, 8.693307876586914, -6.759500026702881],
      "min": [-1.778499960899353, 6.189999580383301, -9.69327449798584],
      "type": "VEC3"
    },
    {
      "bufferView": 1,
      "componentType": 5126,
      "count": 13266,
      "type": "VEC3"
    },
    {
      "bufferView": 2,
      "componentType": 5126,
      "count": 13266,
      "type": "VEC2"
    },
    {
      "bufferView": 3,
      "componentType": 5123,
      "count": 25215,
      "type": "SCALAR"
    }
  ],
  "bufferViews": [
    {
      "buffer": 0,
      "byteLength": 159192,
      "byteOffset": 0,
      "target": 34962
    },
    {
      "buffer": 0,
      "byteLength": 159192,
      "byteOffset": 159192,
      "target": 34962
    },
    {
      "buffer": 0,
      "byteLength": 106128,
      "byteOffset": 318384,
      "target": 34962
    },
    {
      "buffer": 0,
      "byteLength": 50430,
      "byteOffset": 424512,
      "target": 34963
    }
  ],
  "buffers": [
    {
      "byteLength": 474944,
      "uri": "MacBookPro.bin"
    }
  ]
}
