{
  "asset": {
    "generator": "Khronos glTF Blender I/O v4.0.44",
    "version": "2.0"
  },
  "scene": 0,
  "scenes": [
    {
      "name": "Scene",
      "nodes": [0]
    }
  ],
  "nodes": [
    {
      "mesh": 0,
      "name": "Vinyl"
    }
  ],
  "meshes": [
    {
      "name": "Vinyl",
      "primitives": [
        {
          "attributes": {
            "POSITION": 0,
            "NORMAL": 1,
            "TEXCOORD_0": 2
          },
          "indices": 3
        }
      ]
    }
  ],
  "accessors": [
    {
      "bufferView": 0,
      "componentType": 5126,
      "count": 193,
      "max": [1.6350005865097046, 3.2300007343292236, 0.020000001415610313],
      "min": [
        -1.6350005865097046, -3.850460075227602e-7, -0.020000001415610313
      ],
      "type": "VEC3"
    },
    {
      "bufferView": 1,
      "componentType": 5126,
      "count": 193,
      "type": "VEC3"
    },
    {
      "bufferView": 2,
      "componentType": 5126,
      "count": 193,
      "type": "VEC2"
    },
    {
      "bufferView": 3,
      "componentType": 5123,
      "count": 384,
      "type": "SCALAR"
    }
  ],
  "bufferViews": [
    {
      "buffer": 0,
      "byteLength": 2316,
      "byteOffset": 0,
      "target": 34962
    },
    {
      "buffer": 0,
      "byteLength": 2316,
      "byteOffset": 2316,
      "target": 34962
    },
    {
      "buffer": 0,
      "byteLength": 1544,
      "byteOffset": 4632,
      "target": 34962
    },
    {
      "buffer": 0,
      "byteLength": 768,
      "byteOffset": 6176,
      "target": 34963
    }
  ],
  "buffers": [
    {
      "byteLength": 6944,
      "uri": "Vinyl.bin"
    }
  ]
}
